<?xml version="1.0" encoding="UTF-8"?>
<svg width="68px" height="57px" viewBox="0 0 68 57" version="1.1" xmlns="http://www.w3.org/2000/svg" xmlns:xlink="http://www.w3.org/1999/xlink">
    <!-- Generator: Sketch 50.2 (55047) - http://www.bohemiancoding.com/sketch -->
    <title>westerstrand-half</title>
    <desc>Created with Sketch.</desc>
    <defs></defs>
    <g id="Symbols" stroke="none" stroke-width="1" fill="none" fill-rule="evenodd">
        <g id="Header-/-White" transform="translate(-34.000000, -22.000000)" fill-rule="nonzero">
            <g id="Logo">
                <g transform="translate(26.000000, 22.000000)">
                    <g id="westerstrand-half" transform="translate(8.000000, 0.000000)">
                        <polygon id="Shape" fill="#231F20" points="0 48 0 57 51.2763158 57 54 48 0 48"></polygon>
                        <path d="M40.9560426,51.7203961 C41.1293313,52.6664277 40.7840099,53.6297941 40.0307255,54.3018154 C39.4405677,54.91529 38.5052968,55.1512631 37.6513386,54.9021455 C37.0705886,54.6343161 36.834908,53.9921126 37.1225859,53.4613533 C37.18868,52.2606932 38.3783735,51.360198 39.5019728,51 C40.0874301,51.0089129 40.6308251,51.2781294 40.9560426,51.7203961 Z" id="Shape" fill="#231F20"></path>
                        <polygon id="Shape" fill="#0747A6" points="13.6633663 7 13.6633663 31.0344828 21.0891089 7.17672414 44.7920792 7.17672414 44.7920792 31.2112069 52.3366337 7.17672414 66 7.17672414 54.1782178 47.8821839 31.4851485 48 31.4851485 22.433908 22.9306931 47.8821839 0 47.8821839 0 7"></polygon>
                        <polygon id="Shape" fill="#005A9B" points="1.87662338 6 1 6 1.99350649 0 2.92857143 0 1.93506494 4.83333333 1.93506494 4.83333333 5.55844156 0 6.49350649 0 5.73376623 4.83333333 5.73376623 4.83333333 9.06493506 0 10 0 5.67532468 6 4.7987013 6 5.55844156 1 5.55844156 1"></polygon>
                        <polygon id="Shape" fill="#005A9B" points="11.516129 6 7 6 9.59677419 0 14 0 13.7177419 0.722222222 10.1048387 0.722222222 9.31451613 2.55555556 12.6451613 2.55555556 12.3064516 3.27777778 8.97580645 3.27777778 8.12903226 5.27777778 11.7983871 5.27777778"></polygon>
                        <path d="M18.0438773,2.10682002 C18.3820143,1.11579623 17.7620964,0.74416231 17.0858224,0.74416231 C16.3054303,0.682333531 15.5692277,1.14819803 15.2260687,1.92100306 C15.0006441,2.54039293 15.2824249,2.72620989 15.6205619,2.78814888 L17.1985347,3.22172179 C17.8748088,3.40753875 18.269302,3.96498964 17.8748088,5.01795242 C17.4803156,6.07091519 15.7896305,7 14.7188632,7 C13.648096,7 13.3099589,6.62836608 13.1408904,6.38061013 C12.9718219,6.13285418 12.9154657,5.32764735 13.1972466,4.70825748 L13.9298768,4.70825748 C13.4790275,5.88509823 14.2680138,6.25673216 15.0006441,6.25673216 C15.7332743,6.25673216 16.6913292,6.07091519 17.0294662,5.14183039 C17.3676032,4.21274558 17.0858224,4.21274558 16.1841236,3.96498964 L15.0570002,3.6552947 C14.73341,3.60626697 14.4548465,3.37941564 14.3179609,3.05344951 C14.1810753,2.72748338 14.2047332,2.3473273 14.3807262,2.04488104 C14.8662325,0.779750303 16.0059246,-0.0307513488 17.2548909,0.00089446558 C19.3964254,0.00089446558 19.0582884,1.36355218 18.8328637,2.10682002 L18.0438773,2.10682002 Z" id="Shape" fill="#005A9B"></path>
                        <polygon id="Shape" fill="#005A9B" points="20.556701 0 26 0 25.628866 0.722222222 23.4020619 0.722222222 20.9278351 6 20 6 22.4742268 0.722222222 20.2474227 0.722222222"></polygon>
                        <polygon id="Shape" fill="#005A9B" points="27.4596774 6 23 6 25.5403226 0 30 0 29.6612903 0.722222222 26.0483871 0.722222222 25.2580645 2.55555556 28.5887097 2.55555556 28.3064516 3.27777778 24.9758065 3.27777778 24.1290323 5.27777778 27.7983871 5.27777778"></polygon>
                        <path d="M31.1761644,0.666666667 L33.2551084,0.666666667 C33.717096,0.666666667 34.3523289,0.777777778 33.9480898,1.66666667 C33.6723253,2.34484471 32.9708123,2.77226513 32.2156364,2.72222222 L30.3099378,2.72222222 L31.1761644,0.666666667 Z M29.9634471,3.38888889 L32.0423911,3.38888889 C33.0241147,3.38888889 32.8508693,4 32.677624,4.5 C32.4270675,4.97205639 32.2518564,5.47772964 32.157888,6 L33.19736,6 L33.19736,5.83333333 C32.9663662,5.72222222 32.9663662,5.55555556 33.1396115,5.22222222 L33.5438507,4.16666667 C33.8903413,3.33333333 33.6015991,3.16666667 33.3128569,3.05555556 C33.9858831,2.77501582 34.5227032,2.25858042 34.8143164,1.61111111 C35.3918009,0.333333333 34.5255742,0 33.5438507,0 L30.6564284,0 L28,6 L28.8662267,6 L29.9634471,3.38888889 Z" id="Shape" fill="#005A9B"></path>
                        <path d="M40.0438773,2.10682002 C40.3820143,1.11579623 39.7620964,0.74416231 39.0858224,0.74416231 C38.3089945,0.699062781 37.5806021,1.159985 37.2260687,1.92100306 C37.0006441,2.54039293 37.2824249,2.72620989 37.6205619,2.78814888 L39.1985347,3.22172179 C39.8748088,3.40753875 40.269302,3.96498964 39.8748088,5.01795242 C39.4803156,6.07091519 37.7896305,7 36.7188632,7 C35.648096,7 35.3099589,6.62836608 35.1408904,6.38061013 C34.9718219,6.13285418 34.9154657,5.32764735 35.1972466,4.70825748 L35.9298768,4.70825748 C35.4790275,5.88509823 36.2680138,6.25673216 37.0006441,6.25673216 C37.7332743,6.25673216 38.6913292,6.07091519 39.0294662,5.14183039 C39.3676032,4.21274558 39.0858224,4.21274558 38.1841236,3.96498964 L37.0570002,3.6552947 C36.73341,3.60626697 36.4548465,3.37941564 36.3179609,3.05344951 C36.1810753,2.72748338 36.2047332,2.3473273 36.3807262,2.04488104 C36.8662325,0.779750303 38.0059246,-0.0307513488 39.2548909,0.00089446558 C41.3964254,0.00089446558 41.0582884,1.36355218 40.8328637,2.10682002 L40.0438773,2.10682002 Z" id="Shape" fill="#005A9B"></path>
                        <polygon id="Shape" fill="#005A9B" points="41.556701 0 47 0 46.628866 0.722222222 44.4020619 0.722222222 41.9278351 6 41 6 43.4742268 0.722222222 41.2474227 0.722222222"></polygon>
                        <path d="M47.1885106,0.666666667 L49.2755356,0.666666667 C49.6813461,0.666666667 50.3770211,0.777777778 49.9712107,1.66666667 C49.6943742,2.34484471 48.9901344,2.77226513 48.2320231,2.72222222 L46.2609438,2.72222222 L47.1885106,0.666666667 Z M45.9710793,3.38888889 L48.0001314,3.38888889 C49.043644,3.38888889 48.8697252,4 48.6378335,4.5 C48.4331649,4.98451133 48.2778482,5.48684733 48.1740502,6 L49.1595898,6 L49.1595898,5.83333333 C48.985671,5.72222222 48.985671,5.55555556 49.1595898,5.22222222 L49.5654002,4.16666667 C49.9132378,3.33333333 49.6233732,3.16666667 49.3335086,3.05555556 C50.0056515,2.78879455 50.5310255,2.26518903 50.7828315,1.61111111 C51.4205337,0.333333333 50.5509399,0 49.5074273,0 L46.6087814,0 L44,6 L44.8695938,6 L45.9710793,3.38888889 Z" id="Shape" fill="#005A9B"></path>
                        <path d="M52.9126214,3.5 L55.0679612,0.888888889 L54.8349515,3.5 L52.9126214,3.5 Z M54.8349515,4.22222222 L54.7184466,6 L55.592233,6 L56,0 L55.0097087,0 L50,6 L50.8737864,6 L52.3300971,4.22222222 L54.8349515,4.22222222 Z" id="Shape" fill="#005A9B"></path>
                        <polygon id="Shape" fill="#005A9B" points="63.1450382 0 64 0 61.2519084 6 60.2137405 6 59.1145038 1.16666667 59.1145038 1.16666667 56.8549618 6 56 6 58.8091603 0 59.8473282 0 60.8854962 4.83333333 60.8854962 4.83333333"></polygon>
                        <path d="M64.2585505,0.666666667 L65.8582025,0.666666667 C67.0431299,0.666666667 67.4578545,1.44444444 66.7468981,2.94444444 C66.0359416,4.44444444 64.9695069,5.27777778 63.8438258,5.27777778 L62.1849274,5.27777778 L64.2585505,0.666666667 Z M61,6 L63.547594,6 C65.6804634,6 67.0431299,4.22222222 67.69484,2.88888889 C68.3465501,1.55555556 67.9910719,0 66.2729271,0 L63.7253331,0 L61,6 Z" id="Shape" fill="#005A9B"></path>
                        <path d="M25.3684211,50.2091603 C25.3052632,49.8273467 24.9894737,49.3818974 24.1052632,49.3818974 C23.6151477,49.3706363 23.1323685,49.5032992 22.7157895,49.7637111 C22.4073023,49.947133 22.1810361,50.2435039 22.0842105,50.5909739 C21.9453576,50.8975336 22.0223516,51.2595562 22.2736842,51.4818723 C22.6658166,51.7478534 23.0903751,51.9617383 23.5368421,52.1182283 C24.0258111,52.2794176 24.4770838,52.5392382 24.8631579,52.8818555 C25.1071007,53.2342375 25.1769502,53.6799637 25.0526316,54.090932 C24.8519185,54.6087439 24.4994363,55.0526792 24.0421053,55.363644 C23.4225677,55.7733101 22.6989145,55.9942575 21.9578947,56 C20.6315789,56 20.0631579,55.4909152 20,54.7909236 L20.6315789,54.6636524 C20.7578947,55.1727372 21.1368421,55.6181864 22.0842105,55.6181864 C22.6484284,55.6066049 23.1970852,55.4297067 23.6631579,55.1091016 C23.9996387,54.8838784 24.2458378,54.545613 24.3578947,54.1545676 C24.5228655,53.841939 24.472083,53.4581899 24.2315789,53.2000335 L22.9684211,52.5000419 C22.477883,52.3749177 22.0235032,52.1351089 21.6421053,51.8000503 C21.3661778,51.4613886 21.2936887,50.9988186 21.4526316,50.5909739 C21.6077133,50.1179887 21.9200257,49.7134071 22.3368421,49.445533 C22.9247048,49.1485383 23.5739682,48.9958977 24.2315789,49.0000838 C25.4947368,49.0000838 25.9368421,49.5091686 26,50.1455247 L25.3684211,50.2091603 Z" id="Shape" fill="#FFFFFF"></path>
                        <path d="M28.8598131,50.5128205 L27.7383178,52.7564103 L26.6168224,55 L26,55 L26.1121495,50 L26.6168224,50 L26.5046729,52.3076923 C26.5046729,52.9487179 26.4485981,53.7820513 26.3925234,54.6153846 L26.4485981,54.6153846 C26.8411215,53.7820513 27.1775701,53.0128205 27.5700935,52.3076923 L28.7476636,50 L29.3084112,50 L29.3084112,52.3076923 C29.2523364,53.0128205 29.2523364,53.7820513 29.1962617,54.6153846 C29.588785,53.7179487 29.9813084,53.0128205 30.3738318,52.2435897 L31.4953271,50 L32,50 L29.364486,55 L28.6915888,55 L28.8037383,52.7564103 C28.8598131,51.9230769 28.8598131,51.2820513 28.9158879,50.5128205 L28.8598131,50.5128205 Z" id="Shape" fill="#FFFFFF"></path>
                        <path d="M31.9272406,52.2206836 C32.3867511,50.9269174 33.3057723,50.3108382 34.2904377,50.3108382 C35.2751032,50.3108382 35.6033251,51.1117411 35.2751032,52.2206836 L31.9272406,52.2206836 Z M35.8002582,52.5287231 C36.0665806,51.9166414 36.0665806,51.2309596 35.8002582,50.6188778 C35.4845614,50.2043028 34.963653,49.9715038 34.4217265,50.0027987 C33.7399522,49.9894221 33.0719535,50.1839846 32.5180399,50.5572699 C31.8705956,51.0428147 31.4096392,51.7133638 31.2051526,52.4671152 C30.9316158,53.0778498 30.9316158,53.7662259 31.2051526,54.3769605 C31.5626506,54.8116098 32.1324531,55.0441165 32.714973,54.9930397 C33.3152058,54.9984635 33.9055302,54.8493028 34.4217265,54.5617843 C34.7868714,54.3612097 35.1006066,54.0877978 35.3407476,53.7608814 L34.7499483,53.7608814 C34.3092608,54.336797 33.6017381,54.6802542 32.8462617,54.6850001 C32.0585293,54.6850001 31.2707969,54.1921368 31.7959518,52.590331 L35.8002582,52.5287231 Z" id="Shape" fill="#FFFFFF"></path>
                        <path d="M37.7756714,54.6666667 C36.7038268,54.6666667 36.3885784,53.8888889 36.7668765,52.7222222 C37.1451746,51.5555556 38.0909198,50.8333333 39.1627644,50.8333333 C39.7403845,50.8319441 40.2726008,51.1090549 40.5498573,51.5555556 L39.7302115,53.8888889 C39.2276368,54.3417046 38.5554061,54.6181248 37.8387211,54.6666667 L37.7756714,54.6666667 Z M39.5410624,54.3888889 L39.3519134,54.8888889 L39.9193605,54.8888889 L42,49 L41.4325529,49 L40.7390064,51.1111111 L40.6759567,51.1111111 C40.3390332,50.7064788 39.7947795,50.4771224 39.225814,50.5 C37.7681135,50.564599 36.5344045,51.4704903 36.1994294,52.7222222 C35.6950319,54.0555556 36.1363797,55 37.649572,55 C38.3355963,54.9690918 38.9949664,54.7560597 39.5410624,54.3888889 Z" id="Shape" fill="#FFFFFF"></path>
                        <path d="M41.9272406,52.2206836 C42.3867511,50.9269174 43.3057723,50.3108382 44.2904377,50.3108382 C45.2751032,50.3108382 45.6033251,51.1117411 45.2751032,52.2206836 L41.9272406,52.2206836 Z M45.8002582,52.5287231 C46.0665806,51.9166414 46.0665806,51.2309596 45.8002582,50.6188778 C45.4845614,50.2043028 44.963653,49.9715038 44.4217265,50.0027987 C43.7399522,49.9894221 43.0719535,50.1839846 42.5180399,50.5572699 C41.8705956,51.0428147 41.4096392,51.7133638 41.2051526,52.4671152 C40.9316158,53.0778498 40.9316158,53.7662259 41.2051526,54.3769605 C41.5626506,54.8116098 42.1324531,55.0441165 42.714973,54.9930397 C43.3152058,54.9984635 43.9055302,54.8493028 44.4217265,54.5617843 C44.7868714,54.3612097 45.1006066,54.0877978 45.3407476,53.7608814 L44.7499483,53.7608814 C44.3092608,54.336797 43.6017381,54.6802542 42.8462617,54.6850001 C42.0585293,54.6850001 41.2707969,54.1921368 41.7959518,52.590331 L45.8002582,52.5287231 Z" id="Shape" fill="#FFFFFF"></path>
                        <path d="M49.2566289,55 L50.2397621,51.7115622 C50.3639734,51.3906118 50.4062804,51.0422777 50.3626538,50.6997352 C50.1954175,50.4945475 49.9469227,50.3782987 49.6867497,50.3835392 C49.3881157,50.4169172 49.0971988,50.5024622 48.8265081,50.636496 C48.4196163,50.7968418 48.0447423,51.0326177 47.7204832,51.3321271 L46.5530125,55 L46,55 L47.5361457,50.0673433 L48.0891582,50.0673433 L47.8433748,50.8262136 L47.9048207,50.8262136 L48.9493998,50.1938217 C49.2845884,50.0699526 49.6378407,50.0057945 49.9939788,50.0041041 C50.3422002,49.9736129 50.683938,50.1142977 50.9156663,50.3835392 C51.0465442,50.755771 51.0243555,51.1668239 50.8542204,51.5218446 L49.8096413,55 L49.2566289,55 Z" id="Shape" fill="#FFFFFF"></path>
                    </g>
                </g>
            </g>
        </g>
    </g>
</svg>